<?xml version="1.0" standalone="no"?>
<svg viewBox="0 0 200 200" xmlns="http://www.w3.org/2000/svg">
  <path fill="#4C8389" d="M40.2,-68.4C54.3,-61.4,69.5,-55.2,76.2,-43.9C82.8,-32.6,80.8,-16.3,78.4,-1.4C76,13.6,73.2,27.1,68.3,41.4C63.4,55.6,56.4,70.6,44.6,80C32.9,89.5,16.5,93.6,0.5,92.8C-15.6,92,-31.1,86.4,-42.1,76.5C-53.2,66.6,-59.7,52.4,-67.8,39C-76,25.5,-85.7,12.7,-85.7,0C-85.7,-12.7,-75.9,-25.5,-66.8,-37.2C-57.7,-49,-49.2,-59.8,-38.2,-68.6C-27.2,-77.3,-13.6,-84.1,-0.3,-83.6C13,-83.1,26,-75.4,40.2,-68.4Z" transform="translate(100 100)" />
</svg>
