<?xml version="1.0" standalone="no"?>
<svg viewBox="0 0 200 200" xmlns="http://www.w3.org/2000/svg">
  <path fill="#4C8389" d="M47,-76.2C58.9,-65.5,64.9,-49,72.5,-33C80,-16.9,88.9,-1.4,86.8,12.4C84.6,26.2,71.4,38.3,59.7,51.8C48.1,65.4,38.1,80.5,24.2,86.2C10.4,91.9,-7.2,88.3,-21.7,80.8C-36.1,73.4,-47.4,62.1,-56.3,49.9C-65.3,37.6,-71.9,24.5,-75.5,9.9C-79.1,-4.7,-79.6,-20.6,-73.6,-33.5C-67.5,-46.3,-54.9,-56.1,-41.6,-66.1C-28.2,-76,-14.1,-86.2,1.7,-88.9C17.6,-91.6,35.2,-86.9,47,-76.2Z" transform="translate(100 100)" />
</svg>
